<?xml version="1.0" encoding="UTF-8" standalone="no"?>
<svg
   xmlns:dc="http://purl.org/dc/elements/1.1/"
   xmlns:cc="http://creativecommons.org/ns#"
   xmlns:rdf="http://www.w3.org/1999/02/22-rdf-syntax-ns#"
   xmlns:svg="http://www.w3.org/2000/svg"
   xmlns="http://www.w3.org/2000/svg"
   viewBox="57 168 1820 448"
   version="1.1"
   id="svg905">
  <defs
     id="defs909" />
  <path
     id="Seleção"
     fill="none"
     stroke="black"
     stroke-width="1"
     d="M 57.00,171.00
        C 57.00,171.00 239.00,171.00 239.00,171.00
          285.44,171.00 330.89,169.54 372.00,195.06
          387.77,204.86 401.83,217.75 411.13,234.00
          431.96,270.42 428.57,327.82 408.69,364.00
          400.98,378.03 385.63,393.62 373.00,403.35
          364.58,409.84 348.01,421.15 338.00,424.00
          338.00,424.00 375.58,473.00 375.58,473.00
          375.58,473.00 445.42,563.00 445.42,563.00
          445.42,563.00 471.88,597.00 471.88,597.00
          471.88,597.00 485.00,615.00 485.00,615.00
          485.00,615.00 352.00,615.00 352.00,615.00
          350.02,615.00 346.90,615.12 345.09,614.40
          341.33,612.91 334.60,602.64 332.00,599.00
          332.00,599.00 300.13,556.00 300.13,556.00
          300.13,556.00 241.42,477.00 241.42,477.00
          241.42,477.00 229.63,461.00 229.63,461.00
          228.00,458.83 224.92,454.32 222.70,453.02
          220.58,451.78 217.41,452.00 215.00,452.00
          215.00,452.00 172.00,452.00 172.00,452.00
          172.00,452.00 172.00,615.00 172.00,615.00
          172.00,615.00 57.00,615.00 57.00,615.00
          57.00,615.00 57.00,171.00 57.00,171.00 Z
        M 484.00,171.00
        C 484.00,171.00 597.00,171.00 597.00,171.00
          597.00,171.00 604.30,171.99 604.30,171.99
          604.30,171.99 610.81,188.00 610.81,188.00
          610.81,188.00 630.00,244.00 630.00,244.00
          630.00,244.00 679.33,387.00 679.33,387.00
          679.33,387.00 700.66,449.00 700.66,449.00
          700.66,449.00 712.00,481.00 712.00,481.00
          712.00,481.00 721.67,451.00 721.67,451.00
          721.67,451.00 742.31,391.00 742.31,391.00
          742.31,391.00 793.34,242.00 793.34,242.00
          793.34,242.00 811.67,189.00 811.67,189.00
          811.67,189.00 818.65,171.99 818.65,171.99
          818.65,171.99 826.00,171.00 826.00,171.00
          826.00,171.00 936.00,171.00 936.00,171.00
          936.00,171.00 923.69,206.00 923.69,206.00
          923.69,206.00 896.05,282.00 896.05,282.00
          896.05,282.00 815.95,502.00 815.95,502.00
          815.95,502.00 788.31,578.00 788.31,578.00
          788.31,578.00 775.00,615.00 775.00,615.00
          775.00,615.00 653.00,615.00 653.00,615.00
          653.00,615.00 645.70,614.01 645.70,614.01
          645.70,614.01 642.19,607.00 642.19,607.00
          642.19,607.00 636.34,591.00 636.34,591.00
          636.34,591.00 607.95,513.00 607.95,513.00
          607.95,513.00 524.95,285.00 524.95,285.00
          524.95,285.00 497.95,211.00 497.95,211.00
          497.95,211.00 484.00,171.00 484.00,171.00 Z
        M 998.00,171.00
        C 998.00,171.00 1171.00,171.00 1171.00,171.00
          1217.78,171.00 1261.45,168.93 1304.00,192.31
          1338.33,211.17 1349.43,242.95 1349.00,280.00
          1348.91,287.50 1346.36,300.88 1343.92,308.00
          1337.66,326.26 1326.11,341.89 1311.00,353.79
          1303.97,359.33 1292.59,366.55 1284.00,369.00
          1284.00,369.00 1284.00,371.00 1284.00,371.00
          1308.25,375.56 1334.69,386.95 1351.91,405.01
          1366.98,420.83 1375.07,440.51 1377.71,462.00
          1377.71,462.00 1378.68,477.00 1378.68,477.00
          1378.68,477.00 1378.04,486.00 1378.04,486.00
          1377.14,506.57 1373.74,522.70 1363.69,541.00
          1353.01,560.46 1337.62,575.15 1319.00,586.95
          1291.02,604.67 1260.66,611.81 1228.00,614.09
          1228.00,614.09 1216.00,615.00 1216.00,615.00
          1216.00,615.00 1171.00,615.00 1171.00,615.00
          1171.00,615.00 998.00,615.00 998.00,615.00
          998.00,615.00 998.00,171.00 998.00,171.00 Z
        M 1416.00,171.00
        C 1416.00,171.00 1541.00,171.00 1541.00,171.00
          1541.00,171.00 1548.82,172.02 1548.82,172.02
          1548.82,172.02 1556.00,181.00 1556.00,181.00
          1556.00,181.00 1570.00,202.00 1570.00,202.00
          1570.00,202.00 1617.67,273.00 1617.67,273.00
          1617.67,273.00 1640.00,308.00 1640.00,308.00
          1640.00,308.00 1670.67,264.00 1670.67,264.00
          1670.67,264.00 1711.33,205.00 1711.33,205.00
          1711.33,205.00 1725.00,185.00 1725.00,185.00
          1731.04,175.98 1731.66,171.02 1743.00,171.00
          1743.00,171.00 1863.00,171.00 1863.00,171.00
          1863.00,171.00 1825.42,224.00 1825.42,224.00
          1825.42,224.00 1751.58,327.00 1751.58,327.00
          1751.58,327.00 1722.86,367.00 1722.86,367.00
          1722.86,367.00 1709.82,385.58 1709.82,385.58
          1708.67,389.11 1716.22,397.87 1718.33,401.00
          1718.33,401.00 1747.98,444.00 1747.98,444.00
          1747.98,444.00 1823.72,554.00 1823.72,554.00
          1823.72,554.00 1846.42,587.00 1846.42,587.00
          1851.28,593.86 1861.67,608.17 1865.00,615.00
          1865.00,615.00 1739.00,615.00 1739.00,615.00
          1739.00,615.00 1731.52,614.01 1731.52,614.01
          1731.52,614.01 1723.58,603.00 1723.58,603.00
          1723.58,603.00 1710.33,583.00 1710.33,583.00
          1710.33,583.00 1664.00,512.00 1664.00,512.00
          1664.00,512.00 1648.33,488.00 1648.33,488.00
          1648.33,488.00 1638.00,471.00 1638.00,471.00
          1638.00,471.00 1636.00,471.00 1636.00,471.00
          1636.00,471.00 1610.67,510.00 1610.67,510.00
          1610.67,510.00 1562.67,582.00 1562.67,582.00
          1562.67,582.00 1548.00,604.00 1548.00,604.00
          1548.00,604.00 1540.48,614.01 1540.48,614.01
          1540.48,614.01 1533.00,615.00 1533.00,615.00
          1533.00,615.00 1413.00,615.00 1413.00,615.00
          1413.00,615.00 1433.14,585.00 1433.14,585.00
          1433.14,585.00 1468.28,535.00 1468.28,535.00
          1468.28,535.00 1532.28,444.00 1532.28,444.00
          1532.28,444.00 1570.00,391.00 1570.00,391.00
          1570.00,391.00 1546.66,359.00 1546.66,359.00
          1546.66,359.00 1508.28,304.00 1508.28,304.00
          1508.28,304.00 1449.58,220.00 1449.58,220.00
          1449.58,220.00 1416.00,171.00 1416.00,171.00 Z
        M 172.00,372.00
        C 172.00,372.00 199.00,372.00 199.00,372.00
          199.00,372.00 216.00,371.00 216.00,371.00
          235.44,370.97 259.92,370.73 277.00,360.55
          300.25,346.69 308.75,323.05 305.13,297.00
          303.31,283.95 299.22,272.98 288.00,265.04
          267.45,250.50 243.71,252.27 220.00,252.00
          220.00,252.00 206.00,251.00 206.00,251.00
          206.00,251.00 172.00,251.00 172.00,251.00
          172.00,251.00 172.00,372.00 172.00,372.00 Z
        M 1113.00,345.96
        C 1113.00,345.96 1130.00,345.96 1130.00,345.96
          1130.00,345.96 1141.00,345.00 1141.00,345.00
          1164.78,344.89 1193.07,347.53 1214.00,334.53
          1236.95,320.29 1237.13,275.36 1213.00,260.47
          1198.51,251.52 1179.40,252.00 1163.00,252.00
          1163.00,252.00 1133.00,252.00 1133.00,252.00
          1133.00,252.00 1113.00,251.00 1113.00,251.00
          1113.00,251.00 1113.00,345.96 1113.00,345.96 Z
        M 1113.00,535.00
        C 1113.00,535.00 1127.00,535.00 1127.00,535.00
          1127.00,535.00 1142.00,534.00 1142.00,534.00
          1142.00,534.00 1167.00,534.00 1167.00,534.00
          1191.23,534.00 1214.06,535.56 1236.00,522.55
          1242.20,518.87 1247.71,514.19 1251.49,508.00
          1261.45,491.93 1261.78,461.95 1251.49,446.00
          1248.48,441.41 1245.50,438.78 1241.00,435.75
          1223.03,423.65 1199.75,424.00 1179.00,424.00
          1179.00,424.00 1147.00,424.00 1147.00,424.00
          1147.00,424.00 1132.00,423.00 1132.00,423.00
          1132.00,423.00 1113.00,423.00 1113.00,423.00
          1113.00,423.00 1113.00,535.00 1113.00,535.00 Z"
     style="fill:#ffffff;fill-opacity:1;stroke:#ffffff;stroke-opacity:1" />
</svg>
